# xmcd CD database file
#
# Track frame offsets:
#	150
#	17400
#	42375
#	60825
#	80250
#	98400
#	114450
#	129525
#	148445
#
# Disc length: 2231 seconds
#
# Revision: 6
# Processed by: cddbd v1.5.2PL0 Copyright (c) Steve Scherf et al.
# Submitted via: CDex 1.51
#
DISCID=6b08b509
DTITLE=Beck, Bogert and Appice - Beck, Bogert and Appice
DYEAR=1973
DGENRE=Rock
TTITLE0=Black Cat Woman
TTITLE1=Lady
TTITLE2=Oh To Love You
TTITLE3=Superstition
TTITLE4=Sweet Sweet Surrender
TTITLE5=Why Should I Care About You Now
TTITLE6=Lose Myself With You
TTITLE7=Livin' Alone
TTITLE8=I'm So Proud
EXTD=YEAR: 1973
EXTT0=
EXTT1=
EXTT2=
EXTT3=
EXTT4=
EXTT5=
EXTT6=
EXTT7=
EXTT8=
PLAYORDER=
